<?xml version="1.0" encoding="UTF-8" standalone="no"?>
<svg
   xmlns:dc="http://purl.org/dc/elements/1.1/"
   xmlns:cc="http://creativecommons.org/ns#"
   xmlns:rdf="http://www.w3.org/1999/02/22-rdf-syntax-ns#"
   xmlns:svg="http://www.w3.org/2000/svg"
   xmlns="http://www.w3.org/2000/svg"
   xmlns:sodipodi="http://sodipodi.sourceforge.net/DTD/sodipodi-0.dtd"
   xmlns:inkscape="http://www.inkscape.org/namespaces/inkscape"
   width="700"
   height="700"
   viewBox="0 0 700 700"
   version="1.1"
   id="svg11"
   sodipodi:docname="mastercard-logo-2024.svg"
   inkscape:version="0.92.0 r15299"
   inkscape:export-filename="C:\Users\suitedoalex\sites\mastercard-logo-0.png"
   inkscape:export-xdpi="561.73712"
   inkscape:export-ydpi="561.73712">
  <metadata
     id="metadata17">
    <rdf:RDF>
      <cc:Work
         rdf:about="">
        <dc:format>image/svg+xml</dc:format>
        <dc:type
           rdf:resource="http://purl.org/dc/dcmitype/StillImage" />
        <dc:title>MC-logo-52</dc:title>
      </cc:Work>
    </rdf:RDF>
  </metadata>
  <defs
     id="defs15" />
  <sodipodi:namedview
     pagecolor="#ffffff"
     bordercolor="#666666"
     borderopacity="1"
     objecttolerance="10"
     gridtolerance="10"
     guidetolerance="10"
     inkscape:pageopacity="0"
     inkscape:pageshadow="2"
     inkscape:window-width="1920"
     inkscape:window-height="1017"
     id="namedview13"
     showgrid="false"
     inkscape:zoom="0.4609375"
     inkscape:cx="-64.004391"
     inkscape:cy="172.76595"
     inkscape:window-x="-8"
     inkscape:window-y="-8"
     inkscape:window-maximized="1"
     inkscape:current-layer="svg11" />
  <!-- Generator: Sketch 55.2 (78181) - https://sketchapp.com -->
  <title
     id="title2">MC-logo-52</title>
  <desc
     id="desc4">Created with Sketch.</desc>
  <g
     id="Components---Sprint-3"
     style="fill:none;fill-rule:evenodd;stroke:none;stroke-width:1"
     transform="matrix(11.580225,0,0,11.580225,51.993306,164.98413)"
     inkscape:export-filename="C:\Users\suitedoalex\sites\mastercard-logo-3.png"
     inkscape:export-xdpi="64.428406"
     inkscape:export-ydpi="64.428406">
    <g
       id="assets-/-logo-/-mastercard-/-symbol">
      <polygon
         id="Fill-1"
         points="32.692679,3.41596 18.775261,3.41596 18.775261,28.537934 32.692679,28.537934 "
         style="fill:#ff5f00" />
      <path
         d="m 19.659039,15.976947 c 0,-5.096646 2.375681,-9.6358743 6.075063,-12.560987 C 23.028379,1.2763805 19.614856,0 15.904428,0 7.120549,0 1.3254684e-4,7.1532342 1.3254684e-4,15.976947 c 0,8.823713 7.12041645316,15.976947 15.90429545316,15.976947 3.710428,0 7.123951,-1.276381 9.829674,-3.41596 -3.699382,-2.925557 -6.075063,-7.464341 -6.075063,-12.560987"
         id="Fill-2"
         inkscape:connector-curvature="0"
         style="fill:#eb001b" />
      <path
         d="m 50.971463,25.877195 v -0.619994 h -0.161265 l -0.185124,0.426496 -0.185565,-0.426496 h -0.161266 v 0.619994 h 0.113549 v -0.467769 l 0.174078,0.403418 h 0.117967 l 0.174078,-0.404306 v 0.468657 z m -1.021052,0 v -0.514369 h 0.206773 v -0.104737 h -0.525769 v 0.104737 h 0.206331 v 0.514369 z m 1.517661,-9.900381 c 0,8.823713 -7.120858,15.976947 -15.904296,15.976947 -3.710428,0 -7.124392,-1.276381 -9.829674,-3.41596 3.699383,-2.925113 6.075064,-7.464341 6.075064,-12.560987 0,-5.096202 -2.375681,-9.6354306 -6.075064,-12.5609871 2.705282,-2.1395795 6.119246,-3.41596004122 9.829674,-3.41596004122 8.783438,0 15.904296,7.15323424122 15.904296,15.97694714122 z"
         id="Fill-4"
         inkscape:connector-curvature="0"
         style="fill:#f79e1b" />
    </g>
  </g>
</svg>
